<svg id="Capa_1" enable-background="new 0 0 512.003 512.003" height="512" viewBox="0 0 512.003 512.003" width="512" xmlns="http://www.w3.org/2000/svg" xmlns:xlink="http://www.w3.org/1999/xlink"><linearGradient id="SVGID_1_" gradientUnits="userSpaceOnUse" x1="256.002" x2="256.002" y1="512.002" y2=".002"><stop offset="0" stop-color="#fd5900"/><stop offset="1" stop-color="#ffde00"/></linearGradient><linearGradient id="SVGID_2_" gradientUnits="userSpaceOnUse" x1="256" x2="256" y1="512.002" y2="120.009"><stop offset="0" stop-color="#ffe59a"/><stop offset="1" stop-color="#ffffd5"/></linearGradient><g><g><g><path d="m164.912 139.806c3.677-5.508 3.296-12.773-.923-17.871-4.233-5.112-11.323-6.87-17.373-4.277-18.882 7.969-41.616-7.105-41.616-27.656s22.734-35.552 41.616-27.656c6.035 2.534 13.154.835 17.373-4.277 4.219-5.098 4.6-12.363.923-17.871-16.772-25.167-44.766-40.196-74.912-40.196-49.629 0-90 40.371-90 90s40.371 90 90 90c30.146 0 58.14-15.03 74.912-40.196zm151.088-109.804h23.789l-34.395 34.395c-4.292 4.292-5.581 10.737-3.252 16.348 2.314 5.61 7.793 9.258 13.857 9.258h60c8.291 0 15-6.709 15-15s-6.709-15-15-15h-23.789l34.395-34.395c4.292-4.292 5.581-10.737 3.252-16.348-2.314-5.61-7.793-9.258-13.857-9.258h-60c-8.291 0-15 6.709-15 15s6.709 15 15 15zm-166 224.309v257.69h91l30-30h60l30 30h91v-257.69l-151-115.384zm347-104.309h-23.789l34.395-34.395c4.292-4.292 5.581-10.737 3.252-16.348-2.314-5.61-7.793-9.258-13.857-9.258h-60c-8.291 0-15 6.709-15 15s6.709 15 15 15h23.789l-34.395 34.395c-4.292 4.292-5.581 10.737-3.252 16.348 2.314 5.61 7.793 9.258 13.857 9.258h60c8.291 0 15-6.709 15-15s-6.709-15-15-15z" fill="url(#SVGID_1_)"/></g></g><g><g><path d="m256 285.002c0 24.814 20.186 45 45 45s45-20.186 45-45-20.186-45-45-45-45 20.185-45 45zm-141.859 11.894 186.859-142.969 186.859 142.969c6.605 5.078 16.026 3.768 21.035-2.754 5.039-6.563 3.823-15.981-2.754-21.035l-196-150c-5.391-4.131-12.891-4.131-18.281 0l-196 150c-6.577 5.054-7.793 14.473-2.754 21.035 5.054 6.577 14.458 7.793 21.036 2.754zm35.859 155.106h-60c0-16.569-13.431-30-30-30s-30 13.431-30 30c-16.569 0-30 13.431-30 30s13.431 30 30 30h120c16.569 0 30-13.431 30-30s-13.431-30-30-30zm332 0h-30c-16.569 0-30 13.432-30 30 0 16.569 13.431 30 30 30h30c16.569 0 30-13.432 30-30 0-16.569-13.431-30-30-30zm-136-92h-90c-8.291 0-15 6.709-15 15v137h120v-137c0-8.291-6.709-15-15-15z" fill="url(#SVGID_2_)"/></g></g></g></svg>