<svg height="512" viewBox="0 0 64 64" width="512" xmlns="http://www.w3.org/2000/svg"><g id="Filled_outline" data-name="Filled outline"><path d="m43 17h18v12h-18z" fill="#f4f4e6"/><path d="m16 3a11 11 0 0 0 -11 11 10.014 10.014 0 0 0 4 8v4l3-2a10.231 10.231 0 0 0 4 1 11 11 0 0 0 0-22z" fill="#f9bb4b"/><path d="m38 46h-35v4h35 23v-4z" fill="#ad6327"/><path d="m53 50h4v11h-4z" fill="#d3843d" transform="matrix(-1 0 0 -1 110 111)"/><path d="m7 50h4v11h-4z" fill="#d3843d" transform="matrix(-1 0 0 -1 18 111)"/><path d="m6 31h12v10h-12z" fill="#ffd782" transform="matrix(0 -1 1 0 -24 48)"/><path d="m21 34h10v12h-10z" fill="#e97424"/><path d="m22 29h2a2 2 0 0 1 2 2v4a0 0 0 0 1 0 0h-4a0 0 0 0 1 0 0v-6a0 0 0 0 1 0 0z" fill="#e1462b" transform="matrix(0 -1 1 0 -8 56)"/><path d="m26 33h8a0 0 0 0 1 0 0v2a2 2 0 0 1 -2 2h-6a2 2 0 0 1 -2-2 2 2 0 0 1 2-2z" fill="#ffd782" transform="matrix(0 -1 1 0 -6 64)"/><path d="m7 30a0 0 0 0 1 0 0v12a0 0 0 0 1 0 0h-4a0 0 0 0 1 0 0v-8a4 4 0 0 1 4-4z" fill="#394d5c"/><path d="m5 42h11a0 0 0 0 1 0 0v4a0 0 0 0 1 0 0h-11a2 2 0 0 1 -2-2 2 2 0 0 1 2-2z" fill="#96c3f0"/><path d="m61 46h-30v-14h6a34.722 34.722 0 0 1 20 6 9.495 9.495 0 0 1 4 8z" fill="#96c3f0"/><path d="m37 54v3h-2a2 2 0 0 0 -2 2v2h8v-7z" fill="#394d5c"/><path d="m47 57h-2v-3h-4v7h8v-2a2 2 0 0 0 -2-2z" fill="#143441"/><path d="m21 41 4-2-4-3z" fill="#ffd782"/><path d="m36 14h20a1 1 0 0 0 1-1v-10a1 1 0 0 0 -1-1h-20a1 1 0 0 0 -1 1v10a1 1 0 0 0 1 1zm17-10h2v8h-2zm-4 0h2v8h-2zm-4 0h2v8h-2zm-4 0h2v8h-2zm-4 0h2v8h-2z"/><path d="m10 33h2v2h-2z"/><path d="m10 37h2v2h-2z"/><path d="m57.541 37.159a35.56 35.56 0 0 0 -20.541-6.159h-5.184a3 3 0 0 0 -2.816-2h-6a2.9 2.9 0 0 0 -3 3v13h-3v-2a1 1 0 0 0 1-1v-12a1 1 0 0 0 -1-1h-10a5.006 5.006 0 0 0 -5 5v8a.993.993 0 0 0 .3.713 2.893 2.893 0 0 0 0 2.574.993.993 0 0 0 -.3.713v4a1 1 0 0 0 1 1h3v10a1 1 0 0 0 1 1h4a1 1 0 0 0 1-1v-10h40v10a1 1 0 0 0 1 1h4a1 1 0 0 0 1-1v-10h3a1 1 0 0 0 1-1v-4a10.459 10.459 0 0 0 -4.459-8.841zm-29.541-6.159h1a1 1 0 0 1 1 1v6a1 1 0 0 1 -2 0zm-6 1a.919.919 0 0 1 1-1h3v2h-4zm0 6 1.105.829-1.105.553zm0 3.618 3.447-1.718a1 1 0 0 0 .153-1.7l-3.6-2.7v-.5h4v3a3 3 0 0 0 3 3 2.966 2.966 0 0 0 1-.184v4.184h-8zm-14-10.618h8v10h-8zm-4 3a3.006 3.006 0 0 1 2-2.829v9.829h-2zm1 9h10v2h-10a1 1 0 0 1 0-2zm5 17h-2v-9h2zm46 0h-2v-9h2zm4-11h-56v-2h56zm-11.285-4a6.29 6.29 0 0 0 .252-.746 7.277 7.277 0 0 0 -1.141-5.817l-1.652 1.126a5.374 5.374 0 0 1 .859 4.183 4.422 4.422 0 0 1 -.577 1.254h-14.456v-12h5c.929 0 1.833.03 2.718.089a4.336 4.336 0 0 1 1.294 3.76 4.618 4.618 0 0 1 -2.442 3.251l.86 1.806a6.615 6.615 0 0 0 3.558-4.752 6.274 6.274 0 0 0 -.623-3.787 34.124 34.124 0 0 1 14.094 5.477 8.237 8.237 0 0 1 3.491 6.156z"/><path d="m19 13h1l-1.8 2.4a1 1 0 0 0 .8 1.6h3a1 1 0 0 0 0-2h-1l1.8-2.4a1 1 0 0 0 -.8-1.6h-3a1 1 0 0 0 0 2z"/><path d="m10 11h2.865l-3.634 4.36a1 1 0 0 0 .769 1.64h5a1 1 0 0 0 0-2h-2.865l3.634-4.36a1 1 0 0 0 -.769-1.64h-5a1 1 0 0 0 0 2z"/><path d="m8 22.461v3.539a1 1 0 0 0 1.555.832l2.56-1.707a10.151 10.151 0 0 0 3.885.875 12 12 0 1 0 -12-12 10.93 10.93 0 0 0 4 8.461zm8-18.461a10 10 0 0 1 0 20 9.281 9.281 0 0 1 -3.62-.925 1 1 0 0 0 -.935.093l-1.445.963v-2.131a1 1 0 0 0 -.363-.771 9.008 9.008 0 0 1 -3.637-7.229 10.011 10.011 0 0 1 10-10z"/><path d="m45 53h-8a1 1 0 0 0 -1 1v2h-1a3 3 0 0 0 -3 3v2a1 1 0 0 0 1 1h16a1 1 0 0 0 1-1v-2a3 3 0 0 0 -3-3h-1v-2a1 1 0 0 0 -1-1zm-5 7h-6v-1a1 1 0 0 1 1-1h2a1 1 0 0 0 1-1v-2h2zm7-2a1 1 0 0 1 1 1v1h-6v-5h2v2a1 1 0 0 0 1 1z"/><path d="m61 16h-18a1 1 0 0 0 -1 1v12a1 1 0 0 0 1 1h18a1 1 0 0 0 1-1v-12a1 1 0 0 0 -1-1zm-1 12h-16v-10h16z"/><path d="m49 25.966v.034h2v-1.234l2-1.2v2.434h2v-3.634l2.515-1.509-1.03-1.714-1.485.891v-.034h-2v1.234l-2 1.2v-2.434h-2v3.634l-2.515 1.509 1.03 1.714z"/></g></svg>