<svg id="Capa_1" enable-background="new 0 0 512 512" height="512" viewBox="0 0 512 512" width="512" xmlns="http://www.w3.org/2000/svg"><g><g><path clip-rule="evenodd" d="m348.779 230.433c46.204.312 85.125 34.413 90.369 80.107 1.53 13.182-.596 13.748 13.578 15.959 10.347 1.616 21.288 6.747 29.48 12.756 7.228 5.273 13.294 11.65 18.198 19.135 7.483 11.508 11.537 24.803 11.594 38.522.17 39.856-32.088 72.539-72 72.539h-367.997c-39.6.001-72.001-32.399-72.001-72 .142-33.816 23.613-63.212 56.666-70.355 10.715-2.296 10.062-7.002 10.12-17.66.397-69.591 56.41-126.002 126.001-126.002 40.252.113 77.67 18.936 101.538 51.394 7.115 9.694 4.139 9.979 15.223 4.509 11.933-5.927 25.965-8.847 39.231-8.904z" fill="#eef5ff" fill-rule="evenodd"/></g><g><path clip-rule="evenodd" d="m348.779 230.433c46.204.312 85.125 34.413 90.369 80.107 1.53 13.182-.596 13.748 13.578 15.959 10.347 1.616 21.288 6.747 29.48 12.756 7.228 5.273 13.294 11.65 18.198 19.135 7.483 11.508 11.537 24.803 11.594 38.522.17 39.402-31.352 71.774-70.611 72.512 26.815-10.631 45.751-36.964 45.609-67.494-.057-13.748-4.11-27.042-11.594-38.552-4.903-7.482-10.97-13.861-18.198-19.133-8.192-6.01-19.134-11.141-29.48-12.729-14.174-2.211-12.047-2.806-13.578-15.959-5.245-45.723-44.164-79.796-90.369-80.108-1.786 0-3.6.058-5.414.171 9.723-3.43 20.296-5.13 30.416-5.187z" fill="#dfe9fb" fill-rule="evenodd"/></g><g><path clip-rule="evenodd" d="m416.215 8.876c52.924 0 95.784 42.888 95.784 95.783s-42.86 95.782-95.784 95.782c-10.687 0-20.977-1.785-30.586-4.988-5.471-1.843-4.818-3.969-.283-6.406 30.047-16.186 50.458-47.877 50.458-84.388 0-36.482-20.468-68.089-50.43-84.389-4.393-2.381-4.847-4.677.311-6.406 9.583-3.23 19.872-4.988 30.53-4.988z" fill="#ffe07d" fill-rule="evenodd"/></g><g><path clip-rule="evenodd" d="m416.215 8.876c52.924 0 95.784 42.888 95.784 95.783s-42.86 95.782-95.784 95.782c-4.224 0-8.361-.283-12.443-.821 46.971-6.151 83.226-46.318 83.226-94.961 0-48.672-36.283-88.839-83.282-94.961 4.08-.539 8.275-.822 12.499-.822z" fill="#ffd064" fill-rule="evenodd"/></g><g><path d="m340.672 409.584 14.344 23.358 26.674 6.435c4.195 1.02 5.754 6.094 3.004 9.269l-17.801 20.892 2.126 27.439c.34 4.45-4.337 7.483-8.249 5.556l-25.03-10.347-25.427 10.488c-3.884 1.615-8.192-1.502-7.881-5.697l2.126-27.439-17.802-20.892c-2.863-3.345-.992-8.476 3.231-9.326l26.448-6.378 14.4-23.443c2.297-3.685 7.654-3.572 9.837.085z" fill="#ffe07d"/></g><g><path d="m43.427 144.486 9.326 15.222 17.405 4.195c2.722.652 3.742 3.969 1.956 6.038l-11.623 13.605 1.389 17.859c.227 2.921-2.807 4.876-5.358 3.629l-16.328-6.748-16.524 6.834c-2.551 1.049-5.357-.964-5.159-3.714l1.389-17.859-11.594-13.606c-1.871-2.183-.652-5.527 2.098-6.066l17.235-4.167 9.382-15.278c1.502-2.411 4.989-2.325 6.406.056z" fill="#ffe07d"/></g><g><path d="m302.148 69.763 9.355 15.222 17.376 4.195c2.721.652 3.741 3.941 1.956 6.038l-11.594 13.607 1.389 17.858c.198 2.892-2.835 4.876-5.386 3.628l-16.3-6.746-16.555 6.832c-2.552 1.049-5.357-.965-5.131-3.714l1.389-17.858-11.622-13.607c-1.842-2.183-.651-5.527 2.098-6.095l17.264-4.139 9.354-15.278c1.503-2.408 4.989-2.323 6.407.057z" fill="#ffe07d"/></g><g><path d="m184.282 373.98c-4.138 0-7.512-3.344-7.512-7.482 0-4.139 3.374-7.512 7.512-7.512 3.912 0 7.314-.965 9.638-2.552 1.503-1.02 2.438-2.183 2.438-3.203v-58.026c0-5.073 4.818-8.306 9.694-7.171l52.98 12.302c3.373.765 5.811 3.798 5.811 7.285v58.025c0 6.293-3.458 11.765-9.043 15.562-4.734 3.203-11.141 5.217-18.028 5.217-4.139 0-7.512-3.374-7.512-7.513 0-4.138 3.373-7.512 7.512-7.512 3.912 0 7.313-.964 9.666-2.552 1.474-1.02 2.409-2.154 2.409-3.203v-52.072l-38.495-8.958v48.615c0 6.293-3.458 11.764-9.042 15.562-4.761 3.204-11.139 5.188-18.028 5.188z" fill="#94cdf6"/></g><g><path d="m360.656 277.716c3.515-2.154 8.135-1.049 10.289 2.494 2.155 3.516 1.021 8.135-2.494 10.289l-9.581 5.84v47.283c0 5.868-3.203 10.97-8.391 14.485-4.337 2.947-10.176 4.762-16.44 4.762-4.167 0-7.512-3.345-7.512-7.483 0-4.139 3.345-7.512 7.512-7.512 3.288 0 6.123-.794 8.078-2.126 1.077-.737 1.758-1.502 1.758-2.126v-51.166c0-2.722 1.219-5.217 3.6-6.662zm-244.009 65.197c3.543-2.154 8.136-1.049 10.29 2.495 2.154 3.515 1.021 8.135-2.494 10.289l-9.553 5.84v47.281c0 5.869-3.231 10.972-8.391 14.486-4.365 2.948-10.177 4.79-16.47 4.79-4.138 0-7.512-3.373-7.512-7.512 0-4.14 3.373-7.513 7.512-7.513 3.289 0 6.151-.793 8.079-2.125 1.105-.737 1.757-1.503 1.757-2.127v-51.222c0-2.692 1.276-5.188 3.628-6.604z" fill="#b3e59f"/></g></g></svg>