<svg id="Capa_1" enable-background="new 0 0 494.018 494.018" height="512" viewBox="0 0 494.018 494.018" width="512" xmlns="http://www.w3.org/2000/svg"><g><path d="m230.326 346.865c2.354-3.408 1.499-8.079-1.91-10.434-3.409-2.353-8.081-1.499-10.433 1.91l-20.979 30.38c-.067.097-.131.195-.193.295l-33.19 53.25h-17.749c-4.142 0-7.5 3.357-7.5 7.5s3.358 7.5 7.5 7.5h21.912c2.589 0 4.995-1.336 6.365-3.533l4.605-7.388 5.494 7.756c1.406 1.985 3.688 3.165 6.12 3.165h16.476c4.142 0 7.5-3.357 7.5-7.5s-3.358-7.5-7.5-7.5h-12.597l-6.889-9.725 22.091-35.442z" fill="#fccd7f"/><path d="m201.688 324.911c2.189-3.517 1.114-8.142-2.403-10.331-3.515-2.187-8.142-1.113-10.331 2.403l-26.541 42.63-15.952 25.42c-.014.022-.028.045-.042.067l-8.363 13.326h-17.765c-4.142 0-7.5 3.357-7.5 7.5s3.358 7.5 7.5 7.5h21.913c2.581 0 4.981-1.327 6.353-3.514l4.633-7.383 5.477 7.732c1.406 1.985 3.688 3.165 6.12 3.165h16.476c4.142 0 7.5-3.357 7.5-7.5s-3.358-7.5-7.5-7.5h-12.597l-6.841-9.657 13.307-21.206z" fill="#fccd7f"/><path d="m336.587 335.102-231.663-228.487-64.38 60.968 6.64 46.53c16.21 113.52 129.84 185.86 239.55 152.5l24.97-7.59 27.38-15.34z" fill="#fef6ad"/><path d="m37.049 138.707s-24.718-2.255-33.133-11.399l-2.728-2.964c-1.665-1.809-1.568-4.619.216-6.309l5.516-5.226c5.091-4.823 11.452-8.093 18.337-9.426l11.359-2.199 46.978-4.667v42.687z" fill="#fccd7f"/><g><g id="XMLID_943_"><g><path d="m91.938 217.618-6.64-46.53-1.592-6.065c-2.954-11.255-4.352-22.808-4.206-34.332l-38.956 36.892 6.64 46.53c13.915 97.446 99.615 164.545 193 160.492-74.65-15.109-136.598-75.417-148.246-156.987z" fill="#fef48b"/><path d="m343.794 335.823-16.18-14.43-57.17-86.37c-12.51-18.9-27.18-36.18-43.65-51.52-16.47-15.35-34.75-28.75-54.49-39.89l-32.498-12.091-57.141 20.901-2.341 22.33.74 3.44.21.67c30.83 98.09 121.75 164.82 224.57 164.82h33.24l6.07-3.4c.39-1.511.02-3.221-1.36-4.46z" fill="#57be92"/><path d="m81.274 178.862c2.418 7.695 5.207 15.196 8.342 22.487l-4.318-30.262-1.592-6.065c-.613-2.337-1.143-4.689-1.623-7.05l-1.759 16.779.74 3.44z" fill="#22b27f"/><path d="m81.272 178.868-.21-.67-.74-3.44-1.466-26.134-27.064-6.597-11.25 25.561 6.64 46.53c1.47 10.32 3.75 20.3 6.76 29.89h.01l14.15-.73c9.48-.49 18.56-3.9 26.02-9.76l8.38-6.6c-8.72-14.95-15.88-31.03-21.23-48.05z" fill="#fef48b"/><path d="m94.783 232.997c-1.146-5.036-2.1-10.164-2.845-15.38l-2.331-16.334c-3.125-7.273-5.923-14.743-8.335-22.416l-.21-.67-.74-3.44-1.466-26.134-14.548-3.546-8.615 8.159c-2.278-6.548-3.901-11.208-3.901-11.209l-11.25 25.561 6.64 46.53c1.47 10.32 3.75 20.3 6.76 29.89h.01l14.15-.73c9.48-.49 18.56-3.9 26.02-9.76z" fill="#fef056"/></g></g><path d="m283.301 342.603 184.88 82.354c9.822 4.375 21.181-1.404 23.427-11.92l2.035-9.529c1.86-8.711-3.353-17.373-11.922-19.806l-140.927-40.019-126.054-41.049z" fill="#57be92"/><path d="m118.454 72.084-60.516 13.9s-20.088 18.837-20.096 18.859c0 0-.01.008-.011.009 3.115 10.535 3.039 21.786-.299 32.311l-.49 1.53c-.28.9-.36 1.85-.23 2.79l3.73 26.09 19.81 4.38c6.63 1.46 13.3 2.39 19.97 2.79 33.28 2.01 66.37-8.98 91.98-31.14l.82-14.29c.07-1.29.11-2.57.11-3.85 0-13.266-3.919-26.008-10.955-36.792z" fill="#b3dafe"/><path d="m87.776 87.883c1.638-2.618 3.544-5.066 5.682-7.315l-28.621 1.474-26.995 22.816-.007.022c3.112 10.531 3.034 21.777-.303 32.298l-.49 1.53c-.28.9-.36 1.85-.23 2.79l3.73 26.09 19.81 4.38c6.63 1.46 13.3 2.39 19.97 2.79 1.843.111 3.686.183 5.527.215l-2.145-9.944c-6.14-23.392-5.631-48.073 1.731-71.11.928-2.906 1.743-5.081 2.341-6.036z" fill="#8ac9fe"/><g id="XMLID_945_"><g><path d="m162.284 88.682-2.65-.29c-4.2-.15-8.4-.22-12.59-.22-31.9 0-63.66 4.26-94.46 12.66l-14.74 4.02c-.37-1.24-.78-2.46-1.23-3.67 1.02-6.02 3.22-11.72 6.41-16.81 3.18-5.08 7.35-9.54 12.32-13.09 13.5-9.64 29.38-14.53 45.32-14.53 13.23 0 26.5 3.37 38.48 10.17 9.52 5.4 17.39 12.93 23.14 21.76z" fill="#f37c7c"/></g></g><g><path d="m82.665 127.693c-4.142 0-7.5-3.357-7.5-7.5v-5.894c0-4.143 3.358-7.5 7.5-7.5s7.5 3.357 7.5 7.5v5.894c0 4.142-3.358 7.5-7.5 7.5z" fill="#918291"/></g><g id="XMLID_946_"><g><path d="m292.384 268.162-1.95.42s-56.15 7.81-84.49 8.51l-62.56 1.54c-9.02-8.59-17.38-17.92-24.98-27.92l55.5-4.84c30.97-2.69 61.49-9.06 90.96-18.96h.01c1.9 2.67 3.76 5.37 5.57 8.11z" fill="#22b27f"/><path d="m292.384 268.162 19.88 30.05c-24.28 7.28-49.56 10.65-74.9 9.98l-58.25-1.54c-12.77-8.15-24.74-17.54-35.73-28.02l62.56-1.54c28.34-.7 84.49-8.51 84.49-8.51z" fill="#09a76d"/></g></g></g><path d="m100.098 74.788c8.792-6.279 28.778-12.745 28.778-12.745-9.089-3.533-18.664-5.29-28.211-5.29-15.94 0-31.82 4.89-45.32 14.53-4.97 3.55-9.14 8.01-12.32 13.09-3.19 5.09-5.39 10.79-6.41 16.81.45 1.21.86 2.43 1.23 3.67l14.74-4.02c10.888-2.969 21.898-5.411 32.989-7.34.871-2.69 1.636-4.708 2.204-5.615 3.18-5.08 7.35-9.54 12.32-13.09z" fill="#ee6161"/></g><path d="m343.794 335.823-11.171-9.963c-3.325-2.966-6.254-6.348-8.714-10.063l-11.644-17.584c-24.28 7.28-49.56 10.65-74.9 9.98l-58.25-1.54c36.96 23.63 80.65 37.03 126.73 37.03h28.182l5.674-.316c.068-.004.136-.017.2-.041l7.906-2.837c.428-.154.534-.71.19-1.008-1.359-1.182-4.064-3.534-4.203-3.658z" fill="#02905d"/></svg>